<?xml version="1.0" encoding="UTF-8" standalone="no"?><svg xmlns="http://www.w3.org/2000/svg" xmlns:xlink="http://www.w3.org/1999/xlink" contentScriptType="application/ecmascript" contentStyleType="text/css" height="306px" preserveAspectRatio="none" style="width:463px;height:306px;" version="1.1" viewBox="0 0 463 306" width="463.5px" zoomAndPan="magnify"><defs><filter height="300%" id="f1qxcy3dy84ujt" width="300%" x="-1" y="-1"><feGaussianBlur result="blurOut" stdDeviation="3.0"/><feColorMatrix in="blurOut" result="blurOut2" type="matrix" values="0 0 0 0 0 0 0 0 0 0 0 0 0 0 0 0 0 0 .4 0"/><feOffset dx="6.0" dy="6.0" in="blurOut2" result="blurOut3"/><feBlend in="SourceGraphic" in2="blurOut3" mode="normal"/></filter></defs><g><!--MD5=[413e9dcdcf39caeeaf04d52e080116c1]
class LocationHelper--><rect codeLine="4" fill="#FEFECE" filter="url(#f1qxcy3dy84ujt)" height="274.8098" id="LocationHelper" style="stroke:#A80036;stroke-width:2.25;" width="432" x="10.5" y="10.5"/><ellipse cx="157.125" cy="34.5" fill="#ADD1B2" rx="16.5" ry="16.5" style="stroke:#A80036;stroke-width:1.5;"/><path d="M156.6563,43.5 Q153.75,43.5 152.0625,41.3672 Q150.375,39.2109 150.375,34.7813 Q150.375,31.0313 152.1563,28.5 Q153.9375,25.9688 157.0313,25.9688 Q157.7578,25.9688 158.5078,26.1328 Q159.1172,26.3438 159.4922,26.3438 Q159.7969,26.3438 159.9141,26.3203 Q160.0547,26.2734 160.8516,25.2656 L161.9531,31.6172 L160.5,32.5078 Q159.75,30.1875 158.8828,29.3438 Q158.0391,28.5 156.6797,28.5 Q154.9453,28.5 153.9141,30.2813 Q152.9063,32.0391 152.9063,34.7813 Q152.9063,37.7813 153.7734,39.375 Q154.6406,40.9688 156.5859,40.9688 Q157.9688,40.9688 158.9297,40.125 Q159.9141,39.2578 160.4297,37.1719 L161.9766,37.9453 Q161.3906,40.5703 159.9844,42.0469 Q158.5781,43.5 156.6563,43.5 Z " fill="#000000"/><text fill="#000000" font-family="sans-serif" font-size="18" lengthAdjust="spacing" textLength="126" x="187.875" y="42.8364">LocationHelper</text><line style="stroke:#A80036;stroke-width:2.25;" x1="12" x2="441" y1="58.5" y2="58.5"/><rect fill="none" height="9" style="stroke:#C82930;stroke-width:1.5;" width="9" x="22.5" y="70.5"/><text fill="#000000" font-family="sans-serif" font-size="16.5" lengthAdjust="spacing" textLength="199.5" x="40.5" y="83.4089">LocationClient locationClient</text><ellipse cx="27" cy="97.5344" rx="4.5" ry="4.5" style="stroke:#038048;stroke-width:1.5;fill:none;"/><text fill="#000000" font-family="sans-serif" font-size="16.5" lengthAdjust="spacing" textLength="172.5" x="40.5" y="105.9434">BDLocation curLocation</text><rect fill="none" height="9" style="stroke:#C82930;stroke-width:1.5;" width="9" x="22.5" y="115.5688"/><text fill="#000000" font-family="sans-serif" font-size="16.5" lengthAdjust="spacing" textLength="163.5" x="40.5" y="128.4778">MutableList listenerList</text><rect fill="none" height="9" style="stroke:#C82930;stroke-width:1.5;" width="9" x="22.5" y="138.1033"/><text fill="#000000" font-family="sans-serif" font-size="16.5" lengthAdjust="spacing" textLength="328.5" x="40.5" y="151.0122">BDAbstractLocationListener LocationListener</text><line style="stroke:#A80036;stroke-width:2.25;" x1="12" x2="441" y1="160.6377" y2="160.6377"/><ellipse cx="27" cy="177.1377" fill="#84BE84" rx="4.5" ry="4.5" style="stroke:#038048;stroke-width:1.5;"/><text fill="#000000" font-family="sans-serif" font-size="16.5" lengthAdjust="spacing" textLength="45" x="40.5" y="185.5466">start()</text><ellipse cx="27" cy="199.6721" fill="#84BE84" rx="4.5" ry="4.5" style="stroke:#038048;stroke-width:1.5;"/><text fill="#000000" font-family="sans-serif" font-size="16.5" lengthAdjust="spacing" textLength="43.5" x="40.5" y="208.0811">stop()</text><ellipse cx="27" cy="222.2065" fill="#84BE84" rx="4.5" ry="4.5" style="stroke:#038048;stroke-width:1.5;"/><text fill="#000000" font-family="sans-serif" font-size="16.5" lengthAdjust="spacing" textLength="366" x="40.5" y="230.6155">addLocationListener(listener: (BDLocation) -&gt; Unit)</text><ellipse cx="27" cy="244.741" fill="#84BE84" rx="4.5" ry="4.5" style="stroke:#038048;stroke-width:1.5;"/><text fill="#000000" font-family="sans-serif" font-size="16.5" lengthAdjust="spacing" textLength="393" x="40.5" y="253.1499">removeLocationListener(listener: (BDLocation) -&gt; Unit)</text><rect fill="#F24D5C" height="9" style="stroke:#C82930;stroke-width:1.5;" width="9" x="22.5" y="262.7754"/><text fill="#000000" font-family="sans-serif" font-size="16.5" lengthAdjust="spacing" textLength="204" x="40.5" y="275.6843">logLocationInfo(locType: Int)</text><!--MD5=[b6628bc002ecf22367b8abef66096b7f]
@startuml
'https://plantuml.com/class-diagram


class LocationHelper{
-LocationClient locationClient
+BDLocation curLocation
-MutableList listenerList
-BDAbstractLocationListener LocationListener
+start()
+stop()
+addLocationListener(listener: (BDLocation) -> Unit)
+removeLocationListener(listener: (BDLocation) -> Unit)
-logLocationInfo(locType: Int)
}


@enduml

@startuml


class LocationHelper{
-LocationClient locationClient
+BDLocation curLocation
-MutableList listenerList
-BDAbstractLocationListener LocationListener
+start()
+stop()
+addLocationListener(listener: (BDLocation) -> Unit)
+removeLocationListener(listener: (BDLocation) -> Unit)
-logLocationInfo(locType: Int)
}


@enduml

PlantUML version 1.2021.5(Sun Apr 25 19:20:28 CST 2021)
(GPL source distribution)
Java Runtime: OpenJDK Runtime Environment
JVM: OpenJDK 64-Bit Server VM
Default Encoding: GBK
Language: zh
Country: CN
--></g></svg>