<?xml version="1.0" encoding="UTF-8" standalone="no"?><svg xmlns="http://www.w3.org/2000/svg" xmlns:xlink="http://www.w3.org/1999/xlink" contentScriptType="application/ecmascript" contentStyleType="text/css" height="558px" preserveAspectRatio="none" style="width:298px;height:558px;" version="1.1" viewBox="0 0 298 558" width="298.5px" zoomAndPan="magnify"><defs><filter height="300%" id="f118e52tggs45v" width="300%" x="-1" y="-1"><feGaussianBlur result="blurOut" stdDeviation="3.0"/><feColorMatrix in="blurOut" result="blurOut2" type="matrix" values="0 0 0 0 0 0 0 0 0 0 0 0 0 0 0 0 0 0 .4 0"/><feOffset dx="6.0" dy="6.0" in="blurOut2" result="blurOut3"/><feBlend in="SourceGraphic" in2="blurOut3" mode="normal"/></filter></defs><g><!--MD5=[8460060edf49a53314f0423b75744a6d]
class LifecycleObserver--><rect codeLine="5" fill="#FEFECE" filter="url(#f118e52tggs45v)" height="72" id="LifecycleObserver" style="stroke:#A80036;stroke-width:2.25;" width="196.5" x="45.75" y="10.5"/><ellipse cx="68.25" cy="34.5" fill="#B4A7E5" rx="16.5" ry="16.5" style="stroke:#A80036;stroke-width:1.5;"/><path d="M63.5625,28.5 L63.5625,25.9688 L72.4688,25.9688 L72.4688,28.5 L69.6563,28.5 Q69.4219,28.5 69.3516,28.5469 Q69.2813,28.5938 69.2813,28.6641 L69.2813,40.8047 Q69.2813,40.875 69.3516,40.9219 Q69.4219,40.9688 69.6563,40.9688 L72.4688,40.9688 L72.4688,43.5 L63.5625,43.5 L63.5625,40.9688 L66.375,40.9688 Q66.6797,40.9688 66.7031,40.9453 Q66.75,40.9219 66.75,40.8047 L66.75,28.6641 Q66.75,28.5469 66.7031,28.5234 Q66.6797,28.5 66.375,28.5 L63.5625,28.5 Z " fill="#000000"/><text fill="#000000" font-family="sans-serif" font-size="18" font-style="italic" lengthAdjust="spacing" textLength="148.5" x="89.25" y="42.8364">LifecycleObserver</text><line style="stroke:#A80036;stroke-width:2.25;" x1="47.25" x2="240.75" y1="58.5" y2="58.5"/><line style="stroke:#A80036;stroke-width:2.25;" x1="47.25" x2="240.75" y1="70.5" y2="70.5"/><!--MD5=[68b6bc70838f7830eeb91f85515f6e59]
class MapHelper--><rect codeLine="9" fill="#FEFECE" filter="url(#f118e52tggs45v)" height="364.9475" id="MapHelper" style="stroke:#A80036;stroke-width:2.25;" width="267" x="10.5" y="172.5"/><ellipse cx="92.625" cy="196.5" fill="#ADD1B2" rx="16.5" ry="16.5" style="stroke:#A80036;stroke-width:1.5;"/><path d="M92.1563,205.5 Q89.25,205.5 87.5625,203.3672 Q85.875,201.2109 85.875,196.7813 Q85.875,193.0313 87.6563,190.5 Q89.4375,187.9688 92.5313,187.9688 Q93.2578,187.9688 94.0078,188.1328 Q94.6172,188.3438 94.9922,188.3438 Q95.2969,188.3438 95.4141,188.3203 Q95.5547,188.2734 96.3516,187.2656 L97.4531,193.6172 L96,194.5078 Q95.25,192.1875 94.3828,191.3438 Q93.5391,190.5 92.1797,190.5 Q90.4453,190.5 89.4141,192.2813 Q88.4063,194.0391 88.4063,196.7813 Q88.4063,199.7813 89.2734,201.375 Q90.1406,202.9688 92.0859,202.9688 Q93.4688,202.9688 94.4297,202.125 Q95.4141,201.2578 95.9297,199.1719 L97.4766,199.9453 Q96.8906,202.5703 95.4844,204.0469 Q94.0781,205.5 92.1563,205.5 Z " fill="#000000"/><text fill="#000000" font-family="sans-serif" font-size="18" lengthAdjust="spacing" textLength="90" x="123.375" y="204.8364">MapHelper</text><line style="stroke:#A80036;stroke-width:2.25;" x1="12" x2="276" y1="220.5" y2="220.5"/><text fill="#000000" font-family="sans-serif" font-size="16.5" lengthAdjust="spacing" textLength="204" x="19.5" y="245.4089">-TextureMapView mapView</text><text fill="#000000" font-family="sans-serif" font-size="16.5" lengthAdjust="spacing" textLength="136.5" x="19.5" y="267.9434">-Lifecycle lifecycle</text><text fill="#000000" font-family="sans-serif" font-size="16.5" lengthAdjust="spacing" textLength="111" x="19.5" y="290.4778">-BaiduMap map</text><text fill="#000000" font-family="sans-serif" font-size="16.5" lengthAdjust="spacing" textLength="178.5" x="19.5" y="313.0122">-BDLocation curLocation</text><text fill="#000000" font-family="sans-serif" font-size="16.5" lengthAdjust="spacing" textLength="249" x="19.5" y="335.5466">-BDLocation-&gt;Unit locationListener</text><line style="stroke:#A80036;stroke-width:2.25;" x1="12" x2="276" y1="345.1721" y2="345.1721"/><text fill="#000000" font-family="sans-serif" font-size="16.5" lengthAdjust="spacing" textLength="115.5" x="19.5" y="370.0811">+toCurPosition()</text><text fill="#000000" font-family="sans-serif" font-size="16.5" lengthAdjust="spacing" textLength="150" x="19.5" y="392.6155">+animateToPosition()</text><text fill="#000000" font-family="sans-serif" font-size="16.5" lengthAdjust="spacing" textLength="96" x="19.5" y="415.1499">+checkGPS()</text><text fill="#000000" font-family="sans-serif" font-size="16.5" lengthAdjust="spacing" textLength="124.5" x="19.5" y="437.6843">+getCurPosition()</text><text fill="#000000" font-family="sans-serif" font-size="16.5" lengthAdjust="spacing" textLength="87" x="19.5" y="460.2188">+onCreate()</text><text fill="#000000" font-family="sans-serif" font-size="16.5" lengthAdjust="spacing" textLength="97.5" x="19.5" y="482.7532">+onResume()</text><text fill="#000000" font-family="sans-serif" font-size="16.5" lengthAdjust="spacing" textLength="84" x="19.5" y="505.2876">+onPause()</text><text fill="#000000" font-family="sans-serif" font-size="16.5" lengthAdjust="spacing" textLength="96" x="19.5" y="527.822">+onDestroy()</text><!--MD5=[26f6627059d869ae65692bdc22cdfa43]
reverse link LifecycleObserver to MapHelper--><path codeLine="7" d="M144,113.04 C144,130.89 144,151.14 144,172.155 " fill="none" id="LifecycleObserver-backto-MapHelper" style="stroke:#A80036;stroke-width:1.5;"/><polygon fill="none" points="133.5,113.01,144,83.01,154.5,113.01,133.5,113.01" style="stroke:#A80036;stroke-width:1.5;"/><!--MD5=[fb85aa567efef1c1e452b0c0e69e692d]
@startuml
'https://plantuml.com/class-diagram

skinparam classAttributeIconSize 0

interface LifecycleObserver{}

LifecycleObserver <|- - MapHelper

class MapHelper{
-TextureMapView mapView
-Lifecycle lifecycle
-BaiduMap map
-BDLocation curLocation
-BDLocation->Unit locationListener

+toCurPosition()
+animateToPosition()
+checkGPS()
+getCurPosition()
+onCreate()
+onResume()
+onPause()
+onDestroy()

}

@enduml

@startuml

skinparam classAttributeIconSize 0

interface LifecycleObserver{}

LifecycleObserver <|- - MapHelper

class MapHelper{
-TextureMapView mapView
-Lifecycle lifecycle
-BaiduMap map
-BDLocation curLocation
-BDLocation->Unit locationListener

+toCurPosition()
+animateToPosition()
+checkGPS()
+getCurPosition()
+onCreate()
+onResume()
+onPause()
+onDestroy()

}

@enduml

PlantUML version 1.2021.00(Sun Jan 10 18:25:05 CST 2021)
(GPL source distribution)
Java Runtime: OpenJDK Runtime Environment
JVM: OpenJDK 64-Bit Server VM
Default Encoding: GBK
Language: zh
Country: CN
--></g></svg>