<?xml version="1.0" encoding="UTF-8" standalone="no"?><svg xmlns="http://www.w3.org/2000/svg" xmlns:xlink="http://www.w3.org/1999/xlink" contentScriptType="application/ecmascript" contentStyleType="text/css" height="720px" preserveAspectRatio="none" style="width:733px;height:720px;" version="1.1" viewBox="0 0 733 720" width="733.5px" zoomAndPan="magnify"><defs><filter height="300%" id="fw1w4a9dilrhb" width="300%" x="-1" y="-1"><feGaussianBlur result="blurOut" stdDeviation="3.0"/><feColorMatrix in="blurOut" result="blurOut2" type="matrix" values="0 0 0 0 0 0 0 0 0 0 0 0 0 0 0 0 0 0 .4 0"/><feOffset dx="6.0" dy="6.0" in="blurOut2" result="blurOut3"/><feBlend in="SourceGraphic" in2="blurOut3" mode="normal"/></filter></defs><g><!--MD5=[3adc35f3141ee61655590fcd70edb76d]
class NavUtil--><rect codeLine="9" fill="#FEFECE" filter="url(#fw1w4a9dilrhb)" height="117.0688" id="NavUtil" style="stroke:#A80036;stroke-width:2.25;" width="135" x="229.5" y="10.5"/><ellipse cx="264.825" cy="34.5" fill="#ADD1B2" rx="16.5" ry="16.5" style="stroke:#A80036;stroke-width:1.5;"/><path d="M264.3563,43.5 Q261.45,43.5 259.7625,41.3672 Q258.075,39.2109 258.075,34.7813 Q258.075,31.0313 259.8563,28.5 Q261.6375,25.9688 264.7313,25.9688 Q265.4578,25.9688 266.2078,26.1328 Q266.8172,26.3438 267.1922,26.3438 Q267.4969,26.3438 267.6141,26.3203 Q267.7547,26.2734 268.5516,25.2656 L269.6531,31.6172 L268.2,32.5078 Q267.45,30.1875 266.5828,29.3438 Q265.7391,28.5 264.3797,28.5 Q262.6453,28.5 261.6141,30.2813 Q260.6063,32.0391 260.6063,34.7813 Q260.6063,37.7813 261.4734,39.375 Q262.3406,40.9688 264.2859,40.9688 Q265.6688,40.9688 266.6297,40.125 Q267.6141,39.2578 268.1297,37.1719 L269.6766,37.9453 Q269.0906,40.5703 267.6844,42.0469 Q266.2781,43.5 264.3563,43.5 Z " fill="#000000"/><text fill="#000000" font-family="sans-serif" font-size="18" lengthAdjust="spacing" textLength="58.5" x="288.675" y="42.8364">NavUtil</text><line style="stroke:#A80036;stroke-width:2.25;" x1="231" x2="363" y1="58.5" y2="58.5"/><line style="stroke:#A80036;stroke-width:2.25;" x1="231" x2="363" y1="70.5" y2="70.5"/><text fill="#000000" font-family="sans-serif" font-size="16.5" lengthAdjust="spacing" textLength="117" x="238.5" y="95.4089">+startWalkNav()</text><text fill="#000000" font-family="sans-serif" font-size="16.5" lengthAdjust="spacing" textLength="108" x="238.5" y="117.9434">+startCarNav()</text><!--MD5=[fa0c42b0415e302bb50d339d6f059d0b]
class WalkNavActivity--><rect codeLine="14" fill="#FEFECE" filter="url(#fw1w4a9dilrhb)" height="184.6721" id="WalkNavActivity" style="stroke:#A80036;stroke-width:2.25;" width="282" x="10.5" y="285"/><ellipse cx="82.875" cy="309" fill="#ADD1B2" rx="16.5" ry="16.5" style="stroke:#A80036;stroke-width:1.5;"/><path d="M82.4063,318 Q79.5,318 77.8125,315.8672 Q76.125,313.7109 76.125,309.2813 Q76.125,305.5313 77.9063,303 Q79.6875,300.4688 82.7813,300.4688 Q83.5078,300.4688 84.2578,300.6328 Q84.8672,300.8438 85.2422,300.8438 Q85.5469,300.8438 85.6641,300.8203 Q85.8047,300.7734 86.6016,299.7656 L87.7031,306.1172 L86.25,307.0078 Q85.5,304.6875 84.6328,303.8438 Q83.7891,303 82.4297,303 Q80.6953,303 79.6641,304.7813 Q78.6563,306.5391 78.6563,309.2813 Q78.6563,312.2813 79.5234,313.875 Q80.3906,315.4688 82.3359,315.4688 Q83.7188,315.4688 84.6797,314.625 Q85.6641,313.7578 86.1797,311.6719 L87.7266,312.4453 Q87.1406,315.0703 85.7344,316.5469 Q84.3281,318 82.4063,318 Z " fill="#000000"/><text fill="#000000" font-family="sans-serif" font-size="18" lengthAdjust="spacing" textLength="124.5" x="113.625" y="317.3364">WalkNavActivity</text><line style="stroke:#A80036;stroke-width:2.25;" x1="12" x2="291" y1="333" y2="333"/><text fill="#000000" font-family="sans-serif" font-size="16.5" lengthAdjust="spacing" textLength="264" x="19.5" y="357.9089">-WalkNavigateHelper walkNavHelper</text><line style="stroke:#A80036;stroke-width:2.25;" x1="12" x2="291" y1="367.5344" y2="367.5344"/><text fill="#000000" font-family="sans-serif" font-size="16.5" lengthAdjust="spacing" textLength="87" x="19.5" y="392.4434">#onCreate()</text><text fill="#000000" font-family="sans-serif" font-size="16.5" lengthAdjust="spacing" textLength="97.5" x="19.5" y="414.9778">#onResume()</text><text fill="#000000" font-family="sans-serif" font-size="16.5" lengthAdjust="spacing" textLength="84" x="19.5" y="437.5122">#onPause()</text><text fill="#000000" font-family="sans-serif" font-size="16.5" lengthAdjust="spacing" textLength="96" x="19.5" y="460.0466">#onDestroy()</text><!--MD5=[1db69669eb448023f135f8f3f5e8e7ca]
class CarNavActivity--><rect codeLine="22" fill="#FEFECE" filter="url(#fw1w4a9dilrhb)" height="319.8787" id="CarNavActivity" style="stroke:#A80036;stroke-width:2.25;" width="198" x="345" y="217.5"/><ellipse cx="383.7" cy="241.5" fill="#ADD1B2" rx="16.5" ry="16.5" style="stroke:#A80036;stroke-width:1.5;"/><path d="M383.2313,250.5 Q380.325,250.5 378.6375,248.3672 Q376.95,246.2109 376.95,241.7813 Q376.95,238.0313 378.7313,235.5 Q380.5125,232.9688 383.6063,232.9688 Q384.3328,232.9688 385.0828,233.1328 Q385.6922,233.3438 386.0672,233.3438 Q386.3719,233.3438 386.4891,233.3203 Q386.6297,233.2734 387.4266,232.2656 L388.5281,238.6172 L387.075,239.5078 Q386.325,237.1875 385.4578,236.3438 Q384.6141,235.5 383.2547,235.5 Q381.5203,235.5 380.4891,237.2813 Q379.4813,239.0391 379.4813,241.7813 Q379.4813,244.7813 380.3484,246.375 Q381.2156,247.9688 383.1609,247.9688 Q384.5438,247.9688 385.5047,247.125 Q386.4891,246.2578 387.0047,244.1719 L388.5516,244.9453 Q387.9656,247.5703 386.5594,249.0469 Q385.1531,250.5 383.2313,250.5 Z " fill="#000000"/><text fill="#000000" font-family="sans-serif" font-size="18" lengthAdjust="spacing" textLength="114" x="408.3" y="249.8364">CarNavActivity</text><line style="stroke:#A80036;stroke-width:2.25;" x1="346.5" x2="541.5" y1="265.5" y2="265.5"/><text fill="#000000" font-family="sans-serif" font-size="16.5" lengthAdjust="spacing" textLength="180" x="354" y="290.4089">-RouteResult routeResult</text><text fill="#000000" font-family="sans-serif" font-size="16.5" lengthAdjust="spacing" textLength="142.5" x="354" y="312.9434">-LatLng startLatLng</text><text fill="#000000" font-family="sans-serif" font-size="16.5" lengthAdjust="spacing" textLength="136.5" x="354" y="335.4778">-LatLng endLatLng</text><line style="stroke:#A80036;stroke-width:2.25;" x1="346.5" x2="541.5" y1="345.1033" y2="345.1033"/><text fill="#000000" font-family="sans-serif" font-size="16.5" lengthAdjust="spacing" textLength="87" x="354" y="370.0122">#onCreate()</text><text fill="#000000" font-family="sans-serif" font-size="16.5" lengthAdjust="spacing" textLength="85.5" x="354" y="392.5466">-routePlan()</text><text fill="#000000" font-family="sans-serif" font-size="16.5" lengthAdjust="spacing" textLength="174" x="354" y="415.0811">-showRouteResultTab()</text><text fill="#000000" font-family="sans-serif" font-size="16.5" lengthAdjust="spacing" textLength="162" x="354" y="437.6155">-hideRouteResultTab()</text><text fill="#000000" font-family="sans-serif" font-size="16.5" lengthAdjust="spacing" textLength="97.5" x="354" y="460.1499">#onResume()</text><text fill="#000000" font-family="sans-serif" font-size="16.5" lengthAdjust="spacing" textLength="84" x="354" y="482.6843">#onPause()</text><text fill="#000000" font-family="sans-serif" font-size="16.5" lengthAdjust="spacing" textLength="96" x="354" y="505.2188">#onDestroy()</text><text fill="#000000" font-family="sans-serif" font-size="16.5" lengthAdjust="spacing" text-decoration="underline" textLength="54" x="354" y="527.7532">+start()</text><!--MD5=[d9f943b63918214eb4f50ec6eaab4ec3]
class CarNavFragment--><rect codeLine="36" fill="#FEFECE" filter="url(#fw1w4a9dilrhb)" height="72" id="CarNavFragment" style="stroke:#A80036;stroke-width:2.25;" width="189" x="210" y="627"/><ellipse cx="232.5" cy="651" fill="#ADD1B2" rx="16.5" ry="16.5" style="stroke:#A80036;stroke-width:1.5;"/><path d="M232.0313,660 Q229.125,660 227.4375,657.8672 Q225.75,655.7109 225.75,651.2813 Q225.75,647.5313 227.5313,645 Q229.3125,642.4688 232.4063,642.4688 Q233.1328,642.4688 233.8828,642.6328 Q234.4922,642.8438 234.8672,642.8438 Q235.1719,642.8438 235.2891,642.8203 Q235.4297,642.7734 236.2266,641.7656 L237.3281,648.1172 L235.875,649.0078 Q235.125,646.6875 234.2578,645.8438 Q233.4141,645 232.0547,645 Q230.3203,645 229.2891,646.7813 Q228.2813,648.5391 228.2813,651.2813 Q228.2813,654.2813 229.1484,655.875 Q230.0156,657.4688 231.9609,657.4688 Q233.3438,657.4688 234.3047,656.625 Q235.2891,655.7578 235.8047,653.6719 L237.3516,654.4453 Q236.7656,657.0703 235.3594,658.5469 Q233.9531,660 232.0313,660 Z " fill="#000000"/><text fill="#000000" font-family="sans-serif" font-size="18" lengthAdjust="spacing" textLength="141" x="253.5" y="659.3364">CarNavFragment</text><line style="stroke:#A80036;stroke-width:2.25;" x1="211.5" x2="397.5" y1="675" y2="675"/><line style="stroke:#A80036;stroke-width:2.25;" x1="211.5" x2="397.5" y1="687" y2="687"/><!--MD5=[3c5fd342466acb733ac7661ab4ed3969]
class CarRouteResultFragment--><rect codeLine="40" fill="#FEFECE" filter="url(#fw1w4a9dilrhb)" height="72" id="CarRouteResultFragment" style="stroke:#A80036;stroke-width:2.25;" width="261" x="451.5" y="627"/><ellipse cx="474" cy="651" fill="#ADD1B2" rx="16.5" ry="16.5" style="stroke:#A80036;stroke-width:1.5;"/><path d="M473.5313,660 Q470.625,660 468.9375,657.8672 Q467.25,655.7109 467.25,651.2813 Q467.25,647.5313 469.0313,645 Q470.8125,642.4688 473.9063,642.4688 Q474.6328,642.4688 475.3828,642.6328 Q475.9922,642.8438 476.3672,642.8438 Q476.6719,642.8438 476.7891,642.8203 Q476.9297,642.7734 477.7266,641.7656 L478.8281,648.1172 L477.375,649.0078 Q476.625,646.6875 475.7578,645.8438 Q474.9141,645 473.5547,645 Q471.8203,645 470.7891,646.7813 Q469.7813,648.5391 469.7813,651.2813 Q469.7813,654.2813 470.6484,655.875 Q471.5156,657.4688 473.4609,657.4688 Q474.8438,657.4688 475.8047,656.625 Q476.7891,655.7578 477.3047,653.6719 L478.8516,654.4453 Q478.2656,657.0703 476.8594,658.5469 Q475.4531,660 473.5313,660 Z " fill="#000000"/><text fill="#000000" font-family="sans-serif" font-size="18" lengthAdjust="spacing" textLength="213" x="495" y="659.3364">CarRouteResultFragment</text><line style="stroke:#A80036;stroke-width:2.25;" x1="453" x2="711" y1="675" y2="675"/><line style="stroke:#A80036;stroke-width:2.25;" x1="453" x2="711" y1="687" y2="687"/><!--MD5=[591e02bebbd45845ff1a646f5013369f]
link NavUtil to WalkNavActivity--><path codeLine="4" d="M269.64,127.92 C249.54,170.055 221.775,228.315 198.21,277.77 " fill="none" id="NavUtil-to-WalkNavActivity" style="stroke:#A80036;stroke-width:1.5;stroke-dasharray:7.0,7.0;"/><polygon fill="#A80036" points="194.76,284.985,205.9694,275.3622,197.9762,278.2096,195.1288,270.2163,194.76,284.985" style="stroke:#A80036;stroke-width:1.5;"/><!--MD5=[0b589182fba99e1f50e805a1ee4cd0df]
link NavUtil to CarNavActivity--><path codeLine="5" d="M324.645,127.92 C336.165,151.845 350.19,180.96 364.515,210.705 " fill="none" id="NavUtil-to-CarNavActivity" style="stroke:#A80036;stroke-width:1.5;stroke-dasharray:7.0,7.0;"/><polygon fill="#A80036" points="367.77,217.47,367.3449,202.7028,364.528,210.7069,356.5239,207.89,367.77,217.47" style="stroke:#A80036;stroke-width:1.5;"/><!--MD5=[e0b66999971f663d71498dd3dfdbd23f]
link CarNavActivity to CarNavFragment--><path codeLine="6" d="M365.895,537.075 C350.775,567.72 336.18,597.285 325.02,619.905 " fill="none" id="CarNavActivity-to-CarNavFragment" style="stroke:#A80036;stroke-width:1.5;stroke-dasharray:7.0,7.0;"/><polygon fill="#A80036" points="321.675,626.7,333.0308,617.2504,324.9948,619.9747,322.2704,611.9387,321.675,626.7" style="stroke:#A80036;stroke-width:1.5;"/><!--MD5=[50e6cffa1580558d68ca8010eed5eef0]
link CarNavActivity to CarRouteResultFragment--><path codeLine="7" d="M521.265,537.075 C536.235,567.72 550.665,597.285 561.705,619.905 " fill="none" id="CarNavActivity-to-CarRouteResultFragment" style="stroke:#A80036;stroke-width:1.5;stroke-dasharray:7.0,7.0;"/><polygon fill="#A80036" points="565.02,626.7,564.5188,611.9352,561.7432,619.9537,553.7247,617.1781,565.02,626.7" style="stroke:#A80036;stroke-width:1.5;"/><!--MD5=[e6425f73fd059000d2ff24631466215d]
@startuml
'https://plantuml.com/class-diagram
skinparam classAttributeIconSize 0

NavUtil ..> WalkNavActivity
NavUtil ..> CarNavActivity
CarNavActivity ..> CarNavFragment
CarNavActivity ..> CarRouteResultFragment

class NavUtil{
+startWalkNav()
+startCarNav()
}

class WalkNavActivity{
-WalkNavigateHelper walkNavHelper
#onCreate()
#onResume()
#onPause()
#onDestroy()
}

class CarNavActivity{
-RouteResult routeResult
-LatLng startLatLng
-LatLng endLatLng
#onCreate()
-routePlan()
-showRouteResultTab()
-hideRouteResultTab()
#onResume()
#onPause()
#onDestroy()
+{static}start()
}

class CarNavFragment{

}

class CarRouteResultFragment{
}

@enduml

@startuml
skinparam classAttributeIconSize 0

NavUtil ..> WalkNavActivity
NavUtil ..> CarNavActivity
CarNavActivity ..> CarNavFragment
CarNavActivity ..> CarRouteResultFragment

class NavUtil{
+startWalkNav()
+startCarNav()
}

class WalkNavActivity{
-WalkNavigateHelper walkNavHelper
#onCreate()
#onResume()
#onPause()
#onDestroy()
}

class CarNavActivity{
-RouteResult routeResult
-LatLng startLatLng
-LatLng endLatLng
#onCreate()
-routePlan()
-showRouteResultTab()
-hideRouteResultTab()
#onResume()
#onPause()
#onDestroy()
+{static}start()
}

class CarNavFragment{

}

class CarRouteResultFragment{
}

@enduml

PlantUML version 1.2021.00(Sun Jan 10 18:25:05 CST 2021)
(GPL source distribution)
Java Runtime: OpenJDK Runtime Environment
JVM: OpenJDK 64-Bit Server VM
Default Encoding: GBK
Language: zh
Country: CN
--></g></svg>