<?xml version="1.0" encoding="UTF-8" standalone="no"?><svg xmlns="http://www.w3.org/2000/svg" xmlns:xlink="http://www.w3.org/1999/xlink" contentScriptType="application/ecmascript" contentStyleType="text/css" height="490.5px" preserveAspectRatio="none" style="width:870px;height:490px;" version="1.1" viewBox="0 0 870 490" width="870px" zoomAndPan="magnify"><defs><filter height="300%" id="f1cxgfrvaxvwa3" width="300%" x="-1" y="-1"><feGaussianBlur result="blurOut" stdDeviation="3.0"/><feColorMatrix in="blurOut" result="blurOut2" type="matrix" values="0 0 0 0 0 0 0 0 0 0 0 0 0 0 0 0 0 0 .4 0"/><feOffset dx="6.0" dy="6.0" in="blurOut2" result="blurOut3"/><feBlend in="SourceGraphic" in2="blurOut3" mode="normal"/></filter></defs><g><!--MD5=[dbb8b4f13c7b21394f9d757e58732f45]
class Service--><rect codeLine="5" fill="#FEFECE" filter="url(#f1cxgfrvaxvwa3)" height="72" id="Service" style="stroke:#A80036;stroke-width:2.25;" width="109.5" x="10.5" y="55.5"/><ellipse cx="33" cy="79.5" fill="#B4A7E5" rx="16.5" ry="16.5" style="stroke:#A80036;stroke-width:1.5;"/><path d="M28.3125,73.5 L28.3125,70.9688 L37.2188,70.9688 L37.2188,73.5 L34.4063,73.5 Q34.1719,73.5 34.1016,73.5469 Q34.0313,73.5938 34.0313,73.6641 L34.0313,85.8047 Q34.0313,85.875 34.1016,85.9219 Q34.1719,85.9688 34.4063,85.9688 L37.2188,85.9688 L37.2188,88.5 L28.3125,88.5 L28.3125,85.9688 L31.125,85.9688 Q31.4297,85.9688 31.4531,85.9453 Q31.5,85.9219 31.5,85.8047 L31.5,73.6641 Q31.5,73.5469 31.4531,73.5234 Q31.4297,73.5 31.125,73.5 L28.3125,73.5 Z " fill="#000000"/><text fill="#000000" font-family="sans-serif" font-size="18" font-style="italic" lengthAdjust="spacing" textLength="61.5" x="54" y="87.8364">Service</text><line style="stroke:#A80036;stroke-width:2.25;" x1="12" x2="118.5" y1="103.5" y2="103.5"/><line style="stroke:#A80036;stroke-width:2.25;" x1="12" x2="118.5" y1="115.5" y2="115.5"/><!--MD5=[5cd6e3eead63dda206e8d2b414871cad]
class ServiceCreator--><rect codeLine="7" fill="#FEFECE" filter="url(#f1cxgfrvaxvwa3)" height="162.1377" id="ServiceCreator" style="stroke:#A80036;stroke-width:2.25;" width="199.5" x="172.5" y="10.5"/><ellipse cx="208.5" cy="34.5" fill="#ADD1B2" rx="16.5" ry="16.5" style="stroke:#A80036;stroke-width:1.5;"/><path d="M208.0313,43.5 Q205.125,43.5 203.4375,41.3672 Q201.75,39.2109 201.75,34.7813 Q201.75,31.0313 203.5313,28.5 Q205.3125,25.9688 208.4063,25.9688 Q209.1328,25.9688 209.8828,26.1328 Q210.4922,26.3438 210.8672,26.3438 Q211.1719,26.3438 211.2891,26.3203 Q211.4297,26.2734 212.2266,25.2656 L213.3281,31.6172 L211.875,32.5078 Q211.125,30.1875 210.2578,29.3438 Q209.4141,28.5 208.0547,28.5 Q206.3203,28.5 205.2891,30.2813 Q204.2813,32.0391 204.2813,34.7813 Q204.2813,37.7813 205.1484,39.375 Q206.0156,40.9688 207.9609,40.9688 Q209.3438,40.9688 210.3047,40.125 Q211.2891,39.2578 211.8047,37.1719 L213.3516,37.9453 Q212.7656,40.5703 211.3594,42.0469 Q209.9531,43.5 208.0313,43.5 Z " fill="#000000"/><text fill="#000000" font-family="sans-serif" font-size="18" lengthAdjust="spacing" textLength="121.5" x="232.5" y="42.8364">ServiceCreator</text><line style="stroke:#A80036;stroke-width:2.25;" x1="174" x2="370.5" y1="58.5" y2="58.5"/><text fill="#000000" font-family="sans-serif" font-size="16.5" lengthAdjust="spacing" textLength="136.5" x="181.5" y="83.4089">+String BASE_URL</text><text fill="#000000" font-family="sans-serif" font-size="16.5" lengthAdjust="spacing" textLength="181.5" x="181.5" y="105.9434">-OkHttpClient okHttpClient</text><text fill="#000000" font-family="sans-serif" font-size="16.5" lengthAdjust="spacing" textLength="111" x="181.5" y="128.4778">-Retrofit retrofit</text><line style="stroke:#A80036;stroke-width:2.25;" x1="174" x2="370.5" y1="138.1033" y2="138.1033"/><text fill="#000000" font-family="sans-serif" font-size="16.5" lengthAdjust="spacing" textLength="67.5" x="181.5" y="163.0122">+create()</text><!--MD5=[687e0e93109a4e3b835e34cee365dc7c]
class Callback--><rect codeLine="14" fill="#FEFECE" filter="url(#f1cxgfrvaxvwa3)" height="117.0688" id="Callback" style="stroke:#A80036;stroke-width:2.25;" width="123" x="713.25" y="33"/><ellipse cx="735.75" cy="57" fill="#B4A7E5" rx="16.5" ry="16.5" style="stroke:#A80036;stroke-width:1.5;"/><path d="M731.0625,51 L731.0625,48.4688 L739.9688,48.4688 L739.9688,51 L737.1563,51 Q736.9219,51 736.8516,51.0469 Q736.7813,51.0938 736.7813,51.1641 L736.7813,63.3047 Q736.7813,63.375 736.8516,63.4219 Q736.9219,63.4688 737.1563,63.4688 L739.9688,63.4688 L739.9688,66 L731.0625,66 L731.0625,63.4688 L733.875,63.4688 Q734.1797,63.4688 734.2031,63.4453 Q734.25,63.4219 734.25,63.3047 L734.25,51.1641 Q734.25,51.0469 734.2031,51.0234 Q734.1797,51 733.875,51 L731.0625,51 Z " fill="#000000"/><text fill="#000000" font-family="sans-serif" font-size="18" font-style="italic" lengthAdjust="spacing" textLength="75" x="756.75" y="65.3364">Callback</text><line style="stroke:#A80036;stroke-width:2.25;" x1="714.75" x2="834.75" y1="81" y2="81"/><line style="stroke:#A80036;stroke-width:2.25;" x1="714.75" x2="834.75" y1="93" y2="93"/><text fill="#000000" font-family="sans-serif" font-size="16.5" lengthAdjust="spacing" textLength="103.5" x="722.25" y="117.9089">onResponse()</text><text fill="#000000" font-family="sans-serif" font-size="16.5" lengthAdjust="spacing" textLength="66" x="722.25" y="140.4434">onError()</text><!--MD5=[72b14df629312e6feb256ec23256f5dc]
class OkCallback--><rect codeLine="19" fill="#FEFECE" filter="url(#f1cxgfrvaxvwa3)" height="207.2065" id="OkCallback" style="stroke:#A80036;stroke-width:2.25;" width="150" x="699.75" y="262.5"/><ellipse cx="725.625" cy="286.5" fill="#ADD1B2" rx="16.5" ry="16.5" style="stroke:#A80036;stroke-width:1.5;"/><path d="M725.1563,295.5 Q722.25,295.5 720.5625,293.3672 Q718.875,291.2109 718.875,286.7813 Q718.875,283.0313 720.6563,280.5 Q722.4375,277.9688 725.5313,277.9688 Q726.2578,277.9688 727.0078,278.1328 Q727.6172,278.3438 727.9922,278.3438 Q728.2969,278.3438 728.4141,278.3203 Q728.5547,278.2734 729.3516,277.2656 L730.4531,283.6172 L729,284.5078 Q728.25,282.1875 727.3828,281.3438 Q726.5391,280.5 725.1797,280.5 Q723.4453,280.5 722.4141,282.2813 Q721.4063,284.0391 721.4063,286.7813 Q721.4063,289.7813 722.2734,291.375 Q723.1406,292.9688 725.0859,292.9688 Q726.4688,292.9688 727.4297,292.125 Q728.4141,291.2578 728.9297,289.1719 L730.4766,289.9453 Q729.8906,292.5703 728.4844,294.0469 Q727.0781,295.5 725.1563,295.5 Z " fill="#000000"/><text fill="#000000" font-family="sans-serif" font-size="18" lengthAdjust="spacing" textLength="94.5" x="747.375" y="294.8364">OkCallback</text><line style="stroke:#A80036;stroke-width:2.25;" x1="701.25" x2="848.25" y1="310.5" y2="310.5"/><line style="stroke:#A80036;stroke-width:2.25;" x1="701.25" x2="848.25" y1="322.5" y2="322.5"/><text fill="#000000" font-family="sans-serif" font-size="16.5" lengthAdjust="spacing" textLength="112.5" x="708.75" y="347.4089">#onResponse()</text><text fill="#000000" font-family="sans-serif" font-size="16.5" lengthAdjust="spacing" textLength="103.5" x="708.75" y="369.9434">+onSuccess()</text><text fill="#000000" font-family="sans-serif" font-size="16.5" lengthAdjust="spacing" textLength="75" x="708.75" y="392.4778">+onError()</text><text fill="#000000" font-family="sans-serif" font-size="16.5" lengthAdjust="spacing" textLength="87" x="708.75" y="415.0122">+onFailure()</text><text fill="#000000" font-family="sans-serif" font-size="16.5" lengthAdjust="spacing" textLength="132" x="708.75" y="437.5466">+onFailureFinally()</text><text fill="#000000" font-family="sans-serif" font-size="16.5" lengthAdjust="spacing" textLength="84" x="708.75" y="460.0811">+onFinally()</text><!--MD5=[83230c66e1d34dd086fcbb0839ae9f14]
class Interceptor--><rect codeLine="30" fill="#FEFECE" filter="url(#f1cxgfrvaxvwa3)" height="94.5344" id="Interceptor" style="stroke:#A80036;stroke-width:2.25;" width="136.5" x="448.5" y="44.25"/><ellipse cx="471" cy="68.25" fill="#B4A7E5" rx="16.5" ry="16.5" style="stroke:#A80036;stroke-width:1.5;"/><path d="M466.3125,62.25 L466.3125,59.7188 L475.2188,59.7188 L475.2188,62.25 L472.4063,62.25 Q472.1719,62.25 472.1016,62.2969 Q472.0313,62.3438 472.0313,62.4141 L472.0313,74.5547 Q472.0313,74.625 472.1016,74.6719 Q472.1719,74.7188 472.4063,74.7188 L475.2188,74.7188 L475.2188,77.25 L466.3125,77.25 L466.3125,74.7188 L469.125,74.7188 Q469.4297,74.7188 469.4531,74.6953 Q469.5,74.6719 469.5,74.5547 L469.5,62.4141 Q469.5,62.2969 469.4531,62.2734 Q469.4297,62.25 469.125,62.25 L466.3125,62.25 Z " fill="#000000"/><text fill="#000000" font-family="sans-serif" font-size="18" font-style="italic" lengthAdjust="spacing" textLength="88.5" x="492" y="76.5864">Interceptor</text><line style="stroke:#A80036;stroke-width:2.25;" x1="450" x2="583.5" y1="92.25" y2="92.25"/><line style="stroke:#A80036;stroke-width:2.25;" x1="450" x2="583.5" y1="104.25" y2="104.25"/><text fill="#000000" font-family="sans-serif" font-size="16.5" lengthAdjust="spacing" textLength="75" x="457.5" y="129.1589">intercept()</text><!--MD5=[1436eeac2d0a4899abf7345f77fcdee0]
class CookieInterceptor--><rect codeLine="34" fill="#FEFECE" filter="url(#f1cxgfrvaxvwa3)" height="94.5344" id="CookieInterceptor" style="stroke:#A80036;stroke-width:2.25;" width="193.5" x="163.5" y="318.75"/><ellipse cx="186" cy="342.75" fill="#ADD1B2" rx="16.5" ry="16.5" style="stroke:#A80036;stroke-width:1.5;"/><path d="M185.5313,351.75 Q182.625,351.75 180.9375,349.6172 Q179.25,347.4609 179.25,343.0313 Q179.25,339.2813 181.0313,336.75 Q182.8125,334.2188 185.9063,334.2188 Q186.6328,334.2188 187.3828,334.3828 Q187.9922,334.5938 188.3672,334.5938 Q188.6719,334.5938 188.7891,334.5703 Q188.9297,334.5234 189.7266,333.5156 L190.8281,339.8672 L189.375,340.7578 Q188.625,338.4375 187.7578,337.5938 Q186.9141,336.75 185.5547,336.75 Q183.8203,336.75 182.7891,338.5313 Q181.7813,340.2891 181.7813,343.0313 Q181.7813,346.0313 182.6484,347.625 Q183.5156,349.2188 185.4609,349.2188 Q186.8438,349.2188 187.8047,348.375 Q188.7891,347.5078 189.3047,345.4219 L190.8516,346.1953 Q190.2656,348.8203 188.8594,350.2969 Q187.4531,351.75 185.5313,351.75 Z " fill="#000000"/><text fill="#000000" font-family="sans-serif" font-size="18" lengthAdjust="spacing" textLength="145.5" x="207" y="351.0864">CookieInterceptor</text><line style="stroke:#A80036;stroke-width:2.25;" x1="165" x2="355.5" y1="366.75" y2="366.75"/><line style="stroke:#A80036;stroke-width:2.25;" x1="165" x2="355.5" y1="378.75" y2="378.75"/><text fill="#000000" font-family="sans-serif" font-size="16.5" lengthAdjust="spacing" textLength="84" x="172.5" y="403.6589">#intercept()</text><!--MD5=[1da4c74a36ffd3e6b80bbf5b61ad1712]
class RequestLogInterceptor--><rect codeLine="38" fill="#FEFECE" filter="url(#f1cxgfrvaxvwa3)" height="94.5344" id="RequestLogInterceptor" style="stroke:#A80036;stroke-width:2.25;" width="237" x="410.25" y="318.75"/><ellipse cx="432.75" cy="342.75" fill="#ADD1B2" rx="16.5" ry="16.5" style="stroke:#A80036;stroke-width:1.5;"/><path d="M432.2813,351.75 Q429.375,351.75 427.6875,349.6172 Q426,347.4609 426,343.0313 Q426,339.2813 427.7813,336.75 Q429.5625,334.2188 432.6563,334.2188 Q433.3828,334.2188 434.1328,334.3828 Q434.7422,334.5938 435.1172,334.5938 Q435.4219,334.5938 435.5391,334.5703 Q435.6797,334.5234 436.4766,333.5156 L437.5781,339.8672 L436.125,340.7578 Q435.375,338.4375 434.5078,337.5938 Q433.6641,336.75 432.3047,336.75 Q430.5703,336.75 429.5391,338.5313 Q428.5313,340.2891 428.5313,343.0313 Q428.5313,346.0313 429.3984,347.625 Q430.2656,349.2188 432.2109,349.2188 Q433.5938,349.2188 434.5547,348.375 Q435.5391,347.5078 436.0547,345.4219 L437.6016,346.1953 Q437.0156,348.8203 435.6094,350.2969 Q434.2031,351.75 432.2813,351.75 Z " fill="#000000"/><text fill="#000000" font-family="sans-serif" font-size="18" lengthAdjust="spacing" textLength="189" x="453.75" y="351.0864">RequestLogInterceptor</text><line style="stroke:#A80036;stroke-width:2.25;" x1="411.75" x2="645.75" y1="366.75" y2="366.75"/><line style="stroke:#A80036;stroke-width:2.25;" x1="411.75" x2="645.75" y1="378.75" y2="378.75"/><text fill="#000000" font-family="sans-serif" font-size="16.5" lengthAdjust="spacing" textLength="84" x="419.25" y="403.6589">#intercept()</text><!--MD5=[e4ad2960e17ea51ce70c3685bd7d06a1]
reverse link Callback to OkCallback--><path codeLine="28" d="M774.75,180.6 C774.75,206.565 774.75,235.23 774.75,262.05 " fill="none" id="Callback-backto-OkCallback" style="stroke:#A80036;stroke-width:1.5;"/><polygon fill="none" points="764.25,180.585,774.75,150.585,785.25,180.585,764.25,180.585" style="stroke:#A80036;stroke-width:1.5;"/><!--MD5=[dd43fa096293d88776e696edffe0a3a2]
reverse link Interceptor to CookieInterceptor--><path codeLine="42" d="M452.415,161.1 C405.9,210.33 344.31,275.52 303.54,318.675 " fill="none" id="Interceptor-backto-CookieInterceptor" style="stroke:#A80036;stroke-width:1.5;"/><polygon fill="none" points="445.005,153.66,473.235,139.05,460.275,168.075,445.005,153.66" style="stroke:#A80036;stroke-width:1.5;"/><!--MD5=[d5a8246c41f98035f605dfb52e14020b]
reverse link Interceptor to RequestLogInterceptor--><path codeLine="43" d="M520.125,169.26 C522.24,217.35 524.925,277.86 526.725,318.675 " fill="none" id="Interceptor-backto-RequestLogInterceptor" style="stroke:#A80036;stroke-width:1.5;"/><polygon fill="none" points="509.625,169.485,518.79,139.05,530.595,168.57,509.625,169.485" style="stroke:#A80036;stroke-width:1.5;"/><!--MD5=[372a36673dd290eecfbfb7b10b5dd32c]
link ServiceCreator to CookieInterceptor--><path codeLine="44" d="M268.71,172.995 C266.745,217.425 264.36,271.5 262.62,310.845 " fill="none" id="ServiceCreator-to-CookieInterceptor" style="stroke:#A80036;stroke-width:1.5;stroke-dasharray:7.0,7.0;"/><polygon fill="#A80036" points="262.29,318.51,268.8642,305.2801,262.6121,311.0169,256.8752,304.7648,262.29,318.51" style="stroke:#A80036;stroke-width:1.5;"/><!--MD5=[ad5776462bbe9f23b044efbcd5c0e5d6]
link ServiceCreator to RequestLogInterceptor--><path codeLine="45" d="M347.82,172.995 C390.495,218.16 442.59,273.3 479.91,312.795 " fill="none" id="ServiceCreator-to-RequestLogInterceptor" style="stroke:#A80036;stroke-width:1.5;stroke-dasharray:7.0,7.0;"/><polygon fill="#A80036" points="485.295,318.51,480.3555,304.5869,480.1328,313.0693,471.6504,312.8465,485.295,318.51" style="stroke:#A80036;stroke-width:1.5;"/><!--MD5=[9e574eaa0a5789d8aff27c4fda626414]
@startuml
'https://plantuml.com/class-diagram

skinparam classAttributeIconSize 0

interface Service

class ServiceCreator{
+String BASE_URL
-OkHttpClient okHttpClient
-Retrofit retrofit
+create()
}

interface Callback{
onResponse()
onError()
}

class OkCallback{
#onResponse()
+onSuccess()
+onError()
+onFailure()
+onFailureFinally()
+onFinally()
}

Callback <|- - OkCallback

interface Interceptor{
intercept()
}

class CookieInterceptor{
#intercept()
}

class RequestLogInterceptor{
#intercept()
}

Interceptor <|- - CookieInterceptor
Interceptor <|- - RequestLogInterceptor
ServiceCreator ..> CookieInterceptor
ServiceCreator ..> RequestLogInterceptor

@enduml

@startuml

skinparam classAttributeIconSize 0

interface Service

class ServiceCreator{
+String BASE_URL
-OkHttpClient okHttpClient
-Retrofit retrofit
+create()
}

interface Callback{
onResponse()
onError()
}

class OkCallback{
#onResponse()
+onSuccess()
+onError()
+onFailure()
+onFailureFinally()
+onFinally()
}

Callback <|- - OkCallback

interface Interceptor{
intercept()
}

class CookieInterceptor{
#intercept()
}

class RequestLogInterceptor{
#intercept()
}

Interceptor <|- - CookieInterceptor
Interceptor <|- - RequestLogInterceptor
ServiceCreator ..> CookieInterceptor
ServiceCreator ..> RequestLogInterceptor

@enduml

PlantUML version 1.2021.00(Sun Jan 10 18:25:05 CST 2021)
(GPL source distribution)
Java Runtime: OpenJDK Runtime Environment
JVM: OpenJDK 64-Bit Server VM
Default Encoding: GBK
Language: zh
Country: CN
--></g></svg>